<?xml version="1.0" encoding="UTF-8"?>
<!DOCTYPE svg PUBLIC "-//W3C//DTD SVG 1.1//EN" "http://www.w3.org/Graphics/SVG/1.1/DTD/svg11.dtd">
<svg version="1.1" xmlns="http://www.w3.org/2000/svg" xmlns:xlink="http://www.w3.org/1999/xlink" width="1024" height="768"  xml:space="preserve">
    <defs>
        <linearGradient id="innerBottom_1_-bezier" x1="481.68" y1="725.93" x2="705.62" y2="102.71" gradientUnits="userSpaceOnUse" >
            <stop offset="0" stop-color="rgb(250, 178, 15)" stop-opacity="1" />
            <stop offset="0" stop-color="rgb(250, 178, 15)" stop-opacity="1" />
            <stop offset="0.48" stop-color="rgb(229, 92, 21)" stop-opacity="1" />
            <stop offset="0.82" stop-color="rgb(216, 49, 27)" stop-opacity="1" />
            <stop offset="1" stop-color="rgb(211, 33, 30)" stop-opacity="1" />
        </linearGradient>
        <linearGradient id="innerTop_1_-bezier9" x1="409.05" y1="684.29" x2="628.3" y2="74.13" gradientUnits="userSpaceOnUse" >
            <stop offset="0" stop-color="rgb(250, 178, 15)" stop-opacity="1" />
            <stop offset="0" stop-color="rgb(250, 178, 15)" stop-opacity="1" />
            <stop offset="0.48" stop-color="rgb(229, 92, 21)" stop-opacity="1" />
            <stop offset="0.82" stop-color="rgb(216, 49, 27)" stop-opacity="1" />
            <stop offset="1" stop-color="rgb(211, 33, 30)" stop-opacity="1" />
        </linearGradient>
        <linearGradient id="innerLeft_1_-bezier10" x1="324.42" y1="668.77" x2="547.33" y2="48.41" gradientUnits="userSpaceOnUse" >
            <stop offset="0" stop-color="rgb(250, 178, 15)" stop-opacity="1" />
            <stop offset="0" stop-color="rgb(250, 178, 15)" stop-opacity="1" />
            <stop offset="0.48" stop-color="rgb(229, 92, 21)" stop-opacity="1" />
            <stop offset="0.82" stop-color="rgb(216, 49, 27)" stop-opacity="1" />
            <stop offset="1" stop-color="rgb(211, 33, 30)" stop-opacity="1" />
        </linearGradient>
        <linearGradient id="bezier_1_-bezier21" x1="585.57" y1="757.75" x2="811.19" y2="129.83" gradientUnits="userSpaceOnUse" >
            <stop offset="0" stop-color="rgb(250, 178, 15)" stop-opacity="1" />
            <stop offset="0" stop-color="rgb(250, 178, 15)" stop-opacity="1" />
            <stop offset="0.48" stop-color="rgb(229, 92, 21)" stop-opacity="1" />
            <stop offset="0.82" stop-color="rgb(216, 49, 27)" stop-opacity="1" />
            <stop offset="1" stop-color="rgb(211, 33, 30)" stop-opacity="1" />
        </linearGradient>
        <linearGradient id="bezier4_1_-bezier22" x1="494.57" y1="718" x2="718.73" y2="94.13" gradientUnits="userSpaceOnUse" >
            <stop offset="0" stop-color="rgb(250, 178, 15)" stop-opacity="1" />
            <stop offset="0" stop-color="rgb(250, 178, 15)" stop-opacity="1" />
            <stop offset="0.48" stop-color="rgb(229, 92, 21)" stop-opacity="1" />
            <stop offset="0.82" stop-color="rgb(216, 49, 27)" stop-opacity="1" />
            <stop offset="1" stop-color="rgb(211, 33, 30)" stop-opacity="1" />
        </linearGradient>
        <linearGradient id="bezier5_1_-bezier23" x1="325.55" y1="671.7" x2="554.92" y2="33.35" gradientUnits="userSpaceOnUse" >
            <stop offset="0" stop-color="rgb(250, 178, 15)" stop-opacity="1" />
            <stop offset="0" stop-color="rgb(250, 178, 15)" stop-opacity="1" />
            <stop offset="0.48" stop-color="rgb(229, 92, 21)" stop-opacity="1" />
            <stop offset="0.82" stop-color="rgb(216, 49, 27)" stop-opacity="1" />
            <stop offset="1" stop-color="rgb(211, 33, 30)" stop-opacity="1" />
        </linearGradient>
        <linearGradient id="bezier16_1_-bezier24" x1="224.89" y1="629.36" x2="451.11" y2="-0.25" gradientUnits="userSpaceOnUse" >
            <stop offset="0" stop-color="rgb(250, 178, 15)" stop-opacity="1" />
            <stop offset="0" stop-color="rgb(250, 178, 15)" stop-opacity="1" />
            <stop offset="0.48" stop-color="rgb(229, 92, 21)" stop-opacity="1" />
            <stop offset="0.82" stop-color="rgb(216, 49, 27)" stop-opacity="1" />
            <stop offset="1" stop-color="rgb(211, 33, 30)" stop-opacity="1" />
        </linearGradient>
        <linearGradient id="bezier22_1_-bezier25" x1="321.29" y1="679.58" x2="547.41" y2="50.28" gradientUnits="userSpaceOnUse" >
            <stop offset="0" stop-color="rgb(250, 178, 15)" stop-opacity="1" />
            <stop offset="0" stop-color="rgb(250, 178, 15)" stop-opacity="1" />
            <stop offset="0.48" stop-color="rgb(229, 92, 21)" stop-opacity="1" />
            <stop offset="0.82" stop-color="rgb(216, 49, 27)" stop-opacity="1" />
            <stop offset="1" stop-color="rgb(211, 33, 30)" stop-opacity="1" />
        </linearGradient>
        <linearGradient id="bezier23_1_-bezier26" x1="172.89" y1="605.37" x2="394.83" y2="-12.29" gradientUnits="userSpaceOnUse" >
            <stop offset="0" stop-color="rgb(250, 178, 15)" stop-opacity="1" />
            <stop offset="0" stop-color="rgb(250, 178, 15)" stop-opacity="1" />
            <stop offset="0.48" stop-color="rgb(229, 92, 21)" stop-opacity="1" />
            <stop offset="0.82" stop-color="rgb(216, 49, 27)" stop-opacity="1" />
            <stop offset="1" stop-color="rgb(211, 33, 30)" stop-opacity="1" />
        </linearGradient>
        <linearGradient id="bezier24_1_-bezier27" x1="225.21" y1="639.71" x2="448.06" y2="19.53" gradientUnits="userSpaceOnUse" >
            <stop offset="0" stop-color="rgb(250, 178, 15)" stop-opacity="1" />
            <stop offset="0" stop-color="rgb(250, 178, 15)" stop-opacity="1" />
            <stop offset="0.48" stop-color="rgb(229, 92, 21)" stop-opacity="1" />
            <stop offset="0.82" stop-color="rgb(216, 49, 27)" stop-opacity="1" />
            <stop offset="1" stop-color="rgb(211, 33, 30)" stop-opacity="1" />
        </linearGradient>
        <linearGradient id="bezier27_1_-bezier28" x1="170.77" y1="616.12" x2="394.88" y2="-7.62" gradientUnits="userSpaceOnUse" >
            <stop offset="0" stop-color="rgb(250, 178, 15)" stop-opacity="1" />
            <stop offset="0" stop-color="rgb(250, 178, 15)" stop-opacity="1" />
            <stop offset="0.48" stop-color="rgb(229, 92, 21)" stop-opacity="1" />
            <stop offset="0.82" stop-color="rgb(216, 49, 27)" stop-opacity="1" />
            <stop offset="1" stop-color="rgb(211, 33, 30)" stop-opacity="1" />
        </linearGradient>
        <linearGradient id="bezier2_1_-bezier29" x1="631.37" y1="772.7" x2="854.63" y2="151.35" gradientUnits="userSpaceOnUse" >
            <stop offset="0" stop-color="rgb(250, 178, 15)" stop-opacity="1" />
            <stop offset="0" stop-color="rgb(250, 178, 15)" stop-opacity="1" />
            <stop offset="0.48" stop-color="rgb(229, 92, 21)" stop-opacity="1" />
            <stop offset="0.82" stop-color="rgb(216, 49, 27)" stop-opacity="1" />
            <stop offset="1" stop-color="rgb(211, 33, 30)" stop-opacity="1" />
        </linearGradient>
        <linearGradient id="bezier3_1_-bezier30" x1="628.64" y1="777.59" x2="850.38" y2="160.5" gradientUnits="userSpaceOnUse" >
            <stop offset="0" stop-color="rgb(250, 178, 15)" stop-opacity="1" />
            <stop offset="0" stop-color="rgb(250, 178, 15)" stop-opacity="1" />
            <stop offset="0.48" stop-color="rgb(229, 92, 21)" stop-opacity="1" />
            <stop offset="0.82" stop-color="rgb(216, 49, 27)" stop-opacity="1" />
            <stop offset="1" stop-color="rgb(211, 33, 30)" stop-opacity="1" />
        </linearGradient>
        <linearGradient id="bezier11_1_-bezier31" x1="577.56" y1="766.49" x2="800.61" y2="145.74" gradientUnits="userSpaceOnUse" >
            <stop offset="0" stop-color="rgb(250, 178, 15)" stop-opacity="1" />
            <stop offset="0" stop-color="rgb(250, 178, 15)" stop-opacity="1" />
            <stop offset="0.48" stop-color="rgb(229, 92, 21)" stop-opacity="1" />
            <stop offset="0.82" stop-color="rgb(216, 49, 27)" stop-opacity="1" />
            <stop offset="1" stop-color="rgb(211, 33, 30)" stop-opacity="1" />
        </linearGradient>
        <linearGradient id="bezier15_1_-bezier32" x1="481.65" y1="736.56" x2="711.46" y2="97" gradientUnits="userSpaceOnUse" >
            <stop offset="0" stop-color="rgb(250, 178, 15)" stop-opacity="1" />
            <stop offset="0" stop-color="rgb(250, 178, 15)" stop-opacity="1" />
            <stop offset="0.48" stop-color="rgb(229, 92, 21)" stop-opacity="1" />
            <stop offset="0.82" stop-color="rgb(216, 49, 27)" stop-opacity="1" />
            <stop offset="1" stop-color="rgb(211, 33, 30)" stop-opacity="1" />
        </linearGradient>
    </defs>
    <g id="xMLID_1_">
        <g id="piemenugroup">
            <path id="bezier" stroke="none" fill="url(#innerBottom_1_-bezier)" d="M 667.41,443.02 C 667.41,443.02 642.98,491.74 614.22,510.91 584.39,530.8 548.62,539.35 548.07,539.45 517.94,544.89 493.57,543.63 466.77,533.83 466.77,533.83 468.53,526.57 469.36,524.32 L 495.74,451.23 C 496.33,449.57 520.38,382.91 520.38,382.91 582.06,371.78 595.92,369.23 678.22,354.37 684.45,388.85 680.85,413.35 667.41,443.02 Z M 667.41,443.02" />
            <path id="bezier2" stroke="none" fill="rgb(246, 0, 206)" d="M 683.54,453.05 L 680.51,451.96 C 681.47,452.29 682.47,452.67 683.54,453.05 Z M 683.54,453.05" />
            <path id="bezier3" stroke="none" fill="rgb(246, 0, 206)" d="M 608.01,145.12 L 604.09,156 C 605.34,152.53 606.65,148.91 608.01,145.12 Z M 608.01,145.12" />
            <path id="bezier4" stroke="none" fill="rgb(246, 0, 206)" d="M 602.88,159.39 L 600.55,165.87 C 601.31,163.77 602.07,161.62 602.88,159.39 Z M 602.88,159.39" />
            <path id="bezier5" stroke="none" fill="rgb(246, 0, 206)" d="M 600.56,165.87 L 598.37,171.93 C 599.06,169.98 599.8,167.96 600.56,165.87 Z M 600.56,165.87" />
            <path id="bezier6" stroke="none" fill="rgb(246, 0, 206)" d="M 587.08,203.34 L 585.99,206.39 C 586.33,205.43 586.69,204.41 587.08,203.34 Z M 587.08,203.34" />
            <path id="bezier7" stroke="none" fill="rgb(246, 0, 206)" d="M 585.99,206.39 L 585.01,209.1 C 585.33,208.26 585.64,207.34 585.99,206.39 Z M 585.99,206.39" />
            <path id="bezier8" stroke="none" fill="rgb(246, 0, 206)" d="M 584.55,210.44 L 583.77,212.58 C 584.01,211.92 584.26,211.2 584.55,210.44 Z M 584.55,210.44" />
            <path id="bezier9" stroke="none" fill="url(#innerTop_1_-bezier9)" d="M 518.66,375.12 C 461.31,303.67 448.8,290.49 417.47,251.44 438.69,233.99 464.61,223.81 493.58,218.58 494.11,218.48 495.63,218.22 496.17,218.15 526.73,212.93 553.91,219.42 580.93,229.82 611.71,241.68 632.78,259.7 651.85,286.9 665.31,306.05 671.74,324.09 677.36,347.01 595.05,361.88 518.66,375.12 518.66,375.12 Z M 518.66,375.12" />
            <path id="bezier10" stroke="none" fill="url(#innerLeft_1_-bezier10)" d="M 360.47,422.69 C 359.14,417.88 356.12,408.71 355.71,403.66 353.55,376.41 353.57,356.2 361.77,331.88 369.96,307.55 380.94,285.03 411.06,257.5 442.39,296.54 454.05,309.73 511.39,381.17 L 457.77,530.8 C 433.98,522.11 416.51,509.2 398.95,491.02 380.13,471.52 368.02,450.25 360.47,422.69 Z M 360.47,422.69" />
            <path id="bezier11" stroke="none" fill="rgb(246, 0, 206)" d="M 509.85,400.11 L 510.75,397.56 C 510.47,398.38 510.15,399.22 509.85,400.11 Z M 509.85,400.11" />
            <path id="bezier12" stroke="none" fill="rgb(246, 0, 206)" d="M 492.09,449.55 L 493.83,444.65 C 493.25,446.25 492.68,447.88 492.09,449.55 Z M 492.09,449.55" />
            <path id="bezier13" stroke="none" fill="rgb(246, 0, 206)" d="M 462.78,531.08 L 465.25,524.23 C 464.42,526.48 463.62,528.76 462.78,531.08 Z M 462.78,531.08" />
            <path id="bezier14" stroke="none" fill="rgb(246, 0, 206)" d="M 359.75,330.27 L 359,330 C 358.99,329.97 358.99,329.97 359.02,329.96 359.34,330.09 359.57,330.2 359.75,330.27 Z M 359.75,330.27" />
            <path id="bezier15" stroke="none" fill="rgb(246, 0, 206)" d="M 359.02,329.96 C 359,329.97 359,329.97 359,330.01 L 184.34,264.6 C 184.35,264.55 184.36,264.49 184.4,264.44 297.96,305.4 350.95,326.69 359.02,329.96 Z M 359.02,329.96" />
            <path id="bezier16" stroke="none" fill="rgb(246, 0, 206)" d="M 377.08,513 L 380.09,510.46 C 379.14,511.3 378.14,512.14 377.08,513 Z M 377.08,513" />
            <path id="bezier17" stroke="none" fill="rgb(246, 0, 206)" d="M 367.46,521.17 L 371.49,517.77 C 370.21,518.85 368.86,519.98 367.46,521.17 Z M 367.46,521.17" />
            <path id="bezier18" stroke="none" fill="rgb(246, 0, 206)" d="M 360.78,526.83 L 365.32,522.98 C 363.86,524.21 362.34,525.5 360.78,526.83 Z M 360.78,526.83" />
            <path id="bezier19" stroke="none" fill="rgb(246, 0, 206)" d="M 256.32,615.21 C 256.17,615.32 256.02,615.45 255.88,615.58 L 255.88,615.57 256.32,615.21 Z M 256.32,615.21" />
            <path id="bezier20" stroke="none" fill="rgb(246, 0, 206)" d="M 184.4,264.44 C 184.36,264.49 184.35,264.55 184.34,264.6 L 172.92,260.31 C 176.82,261.72 180.64,263.09 184.4,264.44 Z M 184.4,264.44" />
            <g id="outerTop">
                <path id="bezier21" stroke="none" fill="url(#bezier_1_-bezier21)" d="M 845.49,316.6 C 770.53,330.13 719.43,339.7 681.22,346.6 676.79,322.05 667.85,303.16 654.39,284 665.19,274.86 702.21,248.82 784.97,178.8 816.16,220.32 835.64,261.99 845.49,316.6 Z M 845.49,316.6" />
                <path id="bezier22" stroke="none" fill="url(#bezier4_1_-bezier22)" d="M 640.24,66.24 C 697.8,89.71 742.72,122.89 780.26,172.86 697.5,242.88 659.82,267.63 649.02,276.78 629.95,249.57 612.12,239.38 581.58,225.86 L 586.38,216.13 587.16,213.99 587.62,212.65 588.6,209.94 589.69,206.89 600.98,175.48 603.17,169.42 605.49,162.93 606.71,159.55 610.62,148.66 640.24,66.24 Z M 640.24,66.24" />
                <path id="bezier23" stroke="none" fill="url(#bezier5_1_-bezier23)" d="M 633.62,61.69 L 573.98,225.22 C 539.06,210.87 494.43,214.76 494.43,214.76 494.43,214.76 487.44,176.08 463.13,41.41 525.78,32.27 579,41 633.62,61.69 Z M 633.62,61.69" />
                <path id="bezier24" stroke="none" fill="url(#bezier16_1_-bezier24)" d="M 453.2,42.24 C 477.51,176.91 485.21,217.64 484.67,217.74 455.71,222.96 436.74,231.41 415.52,248.86 393.08,220.9 361.79,182.17 300.91,106.38 345.19,74.93 389.88,54.24 445.62,42.85 449.5,42.06 449.3,42.79 453.2,42.24 Z M 453.2,42.24" />
            </g>
            <g id="outerLeft">
                <path id="bezier25" stroke="none" fill="url(#bezier22_1_-bezier25)" d="M 455.96,538.58 L 395.84,706.37 C 341.36,685.62 299.84,660.1 259.63,619.01 259.77,618.88 259.04,618.27 259.2,618.16 L 369.46,524.75 C 370.87,523.55 398.44,500.96 398.44,500.96 415.98,519.13 432.16,529.89 455.96,538.58 Z M 455.96,538.58" />
                <path id="bezier26" stroke="none" fill="url(#bezier23_1_-bezier26)" d="M 409.56,253.65 C 384.52,274.23 366.88,293.9 357.19,324.87 349.13,321.61 299.86,302.11 186.29,261.14 210.29,200.31 242.72,152.21 294.71,112.17 355.58,187.96 387.12,225.69 409.56,253.65 Z M 409.56,253.65" />
                <path id="bezier27" stroke="none" fill="url(#bezier24_1_-bezier27)" d="M 391.95,494.11 L 392.36,495.36 374.57,509.01 253.74,610.81 C 213.59,567.66 188.06,521.8 174.29,460.6 281.91,441.17 348.1,430 355.12,428.74 362.68,456.3 373.75,474.25 391.95,494.11 Z M 391.95,494.11" />
                <path id="bezier28" stroke="none" fill="url(#bezier27_1_-bezier28)" d="M 183.8,268.18 L 354.29,332.31 C 340.23,368.73 351.72,415.65 353.05,420.46 346.02,421.72 279.43,434.13 171.81,453.56 170.69,448.7 170.33,447.5 169.44,442.53 158.28,380.69 163.85,323.29 183.8,268.18 Z M 183.8,268.18" />
            </g>
            <g id="outerBottom">
                <path id="bezier29" stroke="none" fill="url(#bezier2_1_-bezier29)" d="M 681.22,354.36 C 719.44,347.47 772.08,337.58 847.04,324.05 858.69,388.57 851.39,443.99 829.35,500.95 L 829.35,501.26 667.41,443.02 C 680.85,413.35 687.45,388.85 681.22,354.36 Z M 681.22,354.36" />
                <path id="bezier30" stroke="none" fill="url(#bezier3_1_-bezier30)" d="M 681.73,456.42 L 827.18,508.71 C 805.94,563.54 775.04,603.68 730.03,643.1 655.87,555.46 671.87,574.93 621.1,514.91 632.01,507 660.78,476.26 671.38,452.84 L 678.7,455.33 681.73,456.42 Z M 681.73,456.42" />
                <path id="bezier31" stroke="none" fill="url(#bezier11_1_-bezier31)" d="M 615.09,519.99 C 665.86,580 649.36,560.43 723.52,648.06 682.29,682.26 640.49,703.87 584.82,715.88 560.58,581.58 554.12,547.66 554.12,547.66 L 553.25,546.36 C 578.05,541.65 590.53,534.72 615.09,519.99 Z M 615.09,519.99" />
                <path id="bezier32" stroke="none" fill="url(#bezier15_1_-bezier32)" d="M 577.03,717.61 C 573.18,718.46 569.3,719.22 565.41,719.93 506.57,730.54 456.6,726.24 403.63,708.53 L 464.01,539.13 C 490.82,548.93 512.31,551.38 542.43,545.94 542.99,545.84 543.77,543.31 544.31,543.19 544.31,543.19 552.79,583.31 577.03,717.61 Z M 577.03,717.61" />
            </g>
        </g>
        <g id="group7">
            <path id="bezier33" stroke="rgb(255, 255, 255)" stroke-miterlimit="10" fill="none" d="M 184.4,264.44 C 206.71,202.91 246.25,148.67 298.25,108.64 340.43,76.11 390.84,52.96 446.86,42.85 450.76,42.15 454.66,41.5 458.57,40.95 521.22,31.81 582.64,40.26 637.63,62.69 695.19,86.17 745.73,124.96 783.26,174.93 814.45,216.45 836.69,265.69 846.55,320.3 858.2,384.82 852,443.99 829.98,500.96" />
            <path id="bezier34" stroke="rgb(255, 255, 255)" stroke-miterlimit="10" fill="none" d="M 255.88,615.57 C 215.73,572.41 186.22,518.5 172.45,457.29 171.33,452.43 170.33,447.5 169.44,442.53 158.27,380.69 164.38,319.71 184.34,264.59" />
            <path id="bezier35" stroke="rgb(255, 255, 255)" stroke-miterlimit="10" fill="none" d="M 828.99,505.33 C 807.75,560.16 772.72,608.91 727.38,646.49 686.15,680.69 636.4,705.65 580.74,717.66 576.89,718.51 573,719.27 569.1,719.98 510.27,730.59 452.21,725.58 399.25,707.87 344.46,689.56 295.11,657.71 255.88,615.58" />
            <path id="bezier36" stroke="rgb(255, 255, 255)" stroke-width="6.3" stroke-miterlimit="10" fill="none" d="M 359.02,329.96 C 368.71,298.98 387.33,271.4 412.38,250.82 433.59,233.37 459.46,220.96 488.41,215.72 488.95,215.63 489.51,215.53 490.05,215.45 520.61,210.23 550.67,213.7 577.7,224.11 608.48,235.96 635.32,256.79 654.38,284 667.85,303.15 677.45,325.48 681.88,350.02 688.1,384.51 683.23,418.43 669.79,448.1" />
            <path id="bezier37" stroke="rgb(255, 255, 255)" stroke-width="6.3" stroke-miterlimit="10" fill="none" d="M 669.8,448.12 C 657.9,474.43 639.27,497.41 615.7,514.5 596.51,528.43 574.03,538.46 549.24,543.17 548.7,543.29 548.14,543.38 547.58,543.49 517.47,548.92 487.78,545.89 460.98,536.09 437.19,527.4 415.66,513.39 398.11,495.2 379.28,475.72 365.03,451.45 357.48,423.89 356.14,419.08 355.02,414.18 354.12,409.19 349.18,381.81 351.22,354.81 359.01,330" />
            <path id="bezier38" stroke="rgb(255, 255, 255)" stroke-width="6.3" stroke-miterlimit="10" fill="none" d="M 129.01,465.14 C 144.08,462.42 158.57,459.79 172.45,457.29 280.07,437.86 350.45,425.16 357.48,423.89 357.87,423.82 358.05,423.78 358.05,423.78" />
            <path id="bezier39" stroke="rgb(255, 255, 255)" stroke-width="6.3" stroke-miterlimit="10" fill="none" d="M 172.92,260.31 C 176.82,261.72 180.64,263.09 184.4,264.44 297.96,305.4 350.96,326.69 359.02,329.96 359.34,330.09 359.57,330.2 359.75,330.27" />
            <path id="bezier40" stroke="rgb(255, 255, 255)" stroke-width="6.3" stroke-miterlimit="10" fill="none" d="M 359.75,330.27 L 360.12,330.42" />
            <path id="bezier41" stroke="rgb(255, 255, 255)" stroke-width="6.3" stroke-miterlimit="10" fill="none" d="M 291.79,100.56 C 293.98,103.29 296.15,105.99 298.24,108.64 359.12,184.43 389.94,222.86 412.38,250.82 443.71,289.87 458.68,308.52 516.02,379.96" />
            <path id="bezier42" stroke="rgb(255, 255, 255)" stroke-width="6.3" stroke-miterlimit="10" fill="none" d="M 457.76,36.5 C 458.03,37.98 458.3,39.47 458.57,40.95 482.88,175.62 489.76,213.78 489.76,213.78" />
            <path id="bezier43" stroke="rgb(255, 255, 255)" stroke-width="6.3" stroke-miterlimit="10" fill="none" d="M 584.55,210.44 C 584.27,211.19 584.01,211.92 583.77,212.58" />
            <path id="bezier44" stroke="rgb(255, 255, 255)" stroke-width="6.3" stroke-miterlimit="10" fill="none" d="M 587.08,203.34 C 586.69,204.41 586.33,205.43 585.99,206.39 585.65,207.34 585.33,208.26 585.01,209.1" />
            <path id="bezier45" stroke="rgb(255, 255, 255)" stroke-width="6.3" stroke-miterlimit="10" fill="none" d="M 602.88,159.39 C 602.06,161.62 601.31,163.77 600.55,165.87 599.8,167.96 599.06,169.98 598.37,171.93" />
            <path id="bezier46" stroke="rgb(255, 255, 255)" stroke-width="6.3" stroke-miterlimit="10" fill="none" d="M 608.01,145.12 C 606.65,148.91 605.34,152.53 604.09,156" />
            <path id="bezier47" stroke="rgb(255, 255, 255)" stroke-width="6.3" stroke-miterlimit="10" fill="none" d="M 641.85,50.94 L 637.63,62.69" />
            <path id="bezier48" stroke="rgb(255, 255, 255)" stroke-width="6.3" stroke-miterlimit="10" fill="none" d="M 608.01,145.12 L 637.63,62.69" />
            <path id="bezier49" stroke="rgb(255, 255, 255)" stroke-width="6.3" stroke-miterlimit="10" fill="none" d="M 602.88,159.39 L 604.09,156" />
            <path id="bezier50" stroke="rgb(255, 255, 255)" stroke-width="6.3" stroke-miterlimit="10" fill="none" d="M 587.08,203.34 L 598.37,171.93" />
            <path id="bezier51" stroke="rgb(255, 255, 255)" stroke-width="6.3" stroke-miterlimit="10" fill="none" d="M 584.55,210.44 L 585.01,209.1" />
            <path id="bezier52" stroke="rgb(255, 255, 255)" stroke-width="6.3" stroke-miterlimit="10" fill="none" d="M 580.93,220.48 L 583.77,212.58" />
            <path id="bezier53" stroke="rgb(255, 255, 255)" stroke-width="6.3" stroke-miterlimit="10" fill="none" d="M 788.01,170.92 C 786.4,172.27 784.82,173.62 783.26,174.93 708.61,238.1 673.29,264.27 654.39,280.27 651.66,282.55 654.39,284 654.39,284" />
            <path id="bezier54" stroke="rgb(255, 255, 255)" stroke-width="6.3" stroke-miterlimit="10" fill="none" d="M 516.35,379.91 C 516.62,379.85 516.89,379.81 517.16,379.76 578.84,368.62 599.58,364.88 681.88,350.02 720.1,343.12 771.58,333.82 846.55,320.29 851.68,319.37 856.92,318.42 862.26,317.45" />
            <path id="bezier55" stroke="rgb(255, 255, 255)" stroke-width="6.3" stroke-miterlimit="10" fill="none" d="M 683.54,453.05 C 682.47,452.67 681.47,452.29 680.51,451.96" />
            <path id="bezier56" stroke="rgb(255, 255, 255)" stroke-width="6.3" stroke-miterlimit="10" fill="none" d="M 835.96,507.82 L 829.01,505.33" />
            <path id="bezier57" stroke="rgb(255, 255, 255)" stroke-width="6.3" stroke-miterlimit="10" fill="none" d="M 683.54,453.05 L 828.99,505.33 829.01,505.33" />
            <path id="bezier58" stroke="rgb(255, 255, 255)" stroke-width="6.3" stroke-miterlimit="10" fill="none" d="M 666.42,446.89 L 669.79,448.09 669.8,448.12 671.74,442.58" />
            <path id="bezier59" stroke="rgb(255, 255, 255)" stroke-width="6.3" stroke-miterlimit="10" fill="none" d="M 732.06,652.03 C 730.46,650.15 728.9,648.3 727.38,646.49 653.22,558.86 666.48,574.52 615.7,514.5" />
            <path id="bezier60" stroke="rgb(255, 255, 255)" stroke-width="6.3" stroke-miterlimit="10" fill="none" d="M 582.5,725.5 C 578.03,700.78 584.39,737.9 580.74,717.66 556.49,583.37 549.23,543.19 549.23,543.19" />
            <path id="bezier61" stroke="rgb(255, 255, 255)" stroke-width="6.3" stroke-miterlimit="10" fill="none" d="M 509.85,400.11 C 510.15,399.22 510.47,398.38 510.75,397.56" />
            <path id="bezier62" stroke="rgb(255, 255, 255)" stroke-width="6.3" stroke-miterlimit="10" fill="none" d="M 492.09,449.55 C 492.68,447.88 493.25,446.25 493.83,444.65" />
            <path id="bezier63" stroke="rgb(255, 255, 255)" stroke-width="6.3" stroke-miterlimit="10" fill="none" d="M 462.78,531.08 C 463.62,528.76 464.42,526.48 465.25,524.23" />
            <path id="bezier64" stroke="rgb(255, 255, 255)" stroke-width="6.3" stroke-miterlimit="10" fill="none" d="M 462.78,531.08 L 460.98,536.09 399.25,707.88 398.2,710.79" />
            <path id="bezier65" stroke="rgb(255, 255, 255)" stroke-width="6.3" stroke-miterlimit="10" fill="none" d="M 492.09,449.55 L 465.25,524.23" />
            <path id="bezier66" stroke="rgb(255, 255, 255)" stroke-width="6.3" stroke-miterlimit="10" fill="none" d="M 509.85,400.11 L 493.83,444.65" />
            <path id="bezier67" stroke="rgb(255, 255, 255)" stroke-width="6.3" stroke-miterlimit="10" fill="none" d="M 518.86,374.98 L 517.16,379.76 510.75,397.56" />
            <path id="bezier68" stroke="rgb(255, 255, 255)" stroke-width="6.3" stroke-miterlimit="10" fill="none" d="M 377.08,513 C 378.14,512.14 379.14,511.3 380.09,510.46" />
            <path id="bezier69" stroke="rgb(255, 255, 255)" stroke-width="6.3" stroke-miterlimit="10" fill="none" d="M 367.46,521.17 C 368.86,519.98 370.21,518.85 371.49,517.77" />
            <path id="bezier70" stroke="rgb(255, 255, 255)" stroke-width="6.3" stroke-miterlimit="10" fill="none" d="M 360.78,526.83 C 362.34,525.5 363.86,524.21 365.32,522.98" />
            <path id="bezier71" stroke="rgb(255, 255, 255)" stroke-width="6.3" stroke-miterlimit="10" fill="none" d="M 255.88,615.58 C 256.02,615.45 256.16,615.32 256.32,615.21" />
            <path id="bezier72" stroke="rgb(255, 255, 255)" stroke-width="6.3" stroke-miterlimit="10" fill="none" d="M 255.88,615.58 L 251,619.7" />
            <path id="bezier73" stroke="rgb(255, 255, 255)" stroke-width="6.3" stroke-miterlimit="10" fill="none" d="M 360.78,526.83 L 256.32,615.21" />
            <path id="bezier74" stroke="rgb(255, 255, 255)" stroke-width="6.3" stroke-miterlimit="10" fill="none" d="M 367.46,521.17 L 365.32,522.98" />
            <path id="bezier75" stroke="rgb(255, 255, 255)" stroke-width="6.3" stroke-miterlimit="10" fill="none" d="M 377.08,513 L 371.49,517.77" />
            <path id="bezier76" stroke="rgb(255, 255, 255)" stroke-width="6.3" stroke-miterlimit="10" fill="none" d="M 397.95,495.36 L 380.09,510.46" />
        </g>
    </g>
    <path id="bezier77" stroke="none" fill="none" d="M 324.33,373.56 L 537.24,373.56 537.24,443.55 324.33,443.55 324.33,373.56 Z M 324.33,373.56" />
    <path id="bezier78" stroke="none" fill="none" d="M 371.27,368.5 L 550.04,368.5 550.04,413.2 371.27,413.2 371.27,368.5 Z M 371.27,368.5" />
    <rect id="rectangle" stroke="none" fill="none" x="385.31" y="367.77" width="134.08" height="44.69" />
    <text fill="rgb(255, 255, 255)" font-family="GillSans, 'Gill Sans', 'Gill Sans MT', Calibri, sans-serif" font-size="22.35" x="385.31" y="367.77">
        <tspan x="385.31" y="388.77">RETAIL</tspan>
    </text>
    <path id="bezier79" stroke="none" fill="none" d="M 380.22,395.32 L 581.33,395.32 581.33,440.01 380.22,440.01 380.22,395.32 Z M 380.22,395.32" />
    <rect id="rectangle2" stroke="none" fill="none" x="384.12" y="394.59" width="134.08" height="44.69" />
    <text fill="rgb(255, 255, 255)" font-family="GillSans, 'Gill Sans', 'Gill Sans MT', Calibri, sans-serif" font-size="22.35" x="384.12" y="394.59">
        <tspan x="384.12" y="415.59">SECTOR</tspan>
    </text>
    <path id="bezier80" stroke="none" fill="none" d="M 462.07,266.77 L 649.02,266.77 649.02,325.23 462.07,325.23 462.07,266.77 Z M 462.07,266.77" />
    <path id="bezier81" stroke="none" fill="none" d="M 520.1,261.72 L 631.83,261.72 631.83,306.41 520.1,306.41 520.1,261.72 Z M 520.1,261.72" />
    <path id="bezier82" stroke="none" fill="none" d="M 483.02,288.53 L 728.83,288.53 728.83,333.23 483.02,333.23 483.02,288.53 Z M 483.02,288.53" />
    <rect id="rectangle3" stroke="none" fill="none" x="496.28" y="287.8" width="178.77" height="44.69" />
    <text fill="rgb(255, 255, 255)" font-family="GillSans, 'Gill Sans', 'Gill Sans MT', Calibri, sans-serif" font-size="22.35" x="496.28" y="287.8">
        <tspan x="496.28" y="308.8">LOCATION</tspan>
    </text>
    <path id="bezier83" stroke="none" fill="none" d="M 463.81,421.3 L 695.7,421.3 695.7,518.64 463.81,518.64 463.81,421.3 Z M 463.81,421.3" />
    <path id="bezier84" stroke="none" fill="none" d="M 544.31,416.25 L 656.04,416.25 656.04,460.94 544.31,460.94 544.31,416.25 Z M 544.31,416.25" />
    <rect id="rectangle4" stroke="none" fill="none" x="528.71" y="415.52" width="178.77" height="44.69" />
    <text fill="rgb(255, 255, 255)" font-family="GillSans, 'Gill Sans', 'Gill Sans MT', Calibri, sans-serif" font-size="22.35" x="528.71" y="415.52">
        <tspan x="528.71" y="436.52">CUSTOMER</tspan>
    </text>
    <path id="bezier85" stroke="none" fill="none" d="M 528.86,443.06 L 707.62,443.06 707.62,487.76 528.86,487.76 528.86,443.06 Z M 528.86,443.06" />
    <rect id="rectangle5" stroke="none" fill="none" x="528.85" y="442.33" width="89.39" height="44.69" />
    <text fill="rgb(255, 255, 255)" font-family="GillSans, 'Gill Sans', 'Gill Sans MT', Calibri, sans-serif" font-size="22.35" x="528.85" y="442.33">
        <tspan x="528.85" y="463.33">TYPE</tspan>
    </text>
    <path id="bezier86" stroke="none" fill="none" d="M 227.71,208.76 L 380.35,208.76 380.35,288.96 227.71,288.96 227.71,208.76 Z M 227.71,208.76" />
    <path id="bezier87" stroke="none" fill="none" d="M 284.84,205 L 389.13,205 389.13,239.77 284.84,239.77 284.84,205 Z M 284.84,205" />
    <rect id="rectangle6" stroke="none" fill="none" x="243.51" y="204.6" width="191.16" height="34.76" />
    <text fill="rgb(255, 255, 255)" font-family="GillSans, 'Gill Sans', 'Gill Sans MT', Calibri, sans-serif" font-size="17.38" x="243.51" y="204.6">
        <tspan x="243.51" y="220.6">HIGH STREET</tspan>
    </text>
    <path id="bezier88" stroke="none" fill="none" d="M 243.31,225.86 L 451.87,225.86 451.87,260.62 243.31,260.62 243.31,225.86 Z M 243.31,225.86" />
    <rect id="rectangle7" stroke="none" fill="none" x="243.31" y="225.45" width="104.27" height="34.76" />
    <text fill="rgb(255, 255, 255)" font-family="GillSans, 'Gill Sans', 'Gill Sans MT', Calibri, sans-serif" font-size="17.38" x="243.31" y="225.45">
        <tspan x="243.31" y="241.45">BRANDS</tspan>
    </text>
    <path id="bezier89" stroke="none" fill="none" d="M 142.49,365.06 L 347.1,365.06 347.1,387.01 142.49,387.01 142.49,365.06 Z M 142.49,365.06" />
    <path id="bezier90" stroke="none" fill="none" d="M 216.78,361.31 L 303.68,361.31 303.68,396.08 216.78,396.08 216.78,361.31 Z M 216.78,361.31" />
    <rect id="rectangle8" stroke="none" fill="none" x="216.78" y="360.91" width="104.27" height="34.76" />
    <text fill="rgb(255, 255, 255)" font-family="GillSans, 'Gill Sans', 'Gill Sans MT', Calibri, sans-serif" font-size="17.38" x="216.78" y="360.91">
        <tspan x="216.78" y="376.91">LUXURY</tspan>
    </text>
    <path id="bezier91" stroke="none" fill="none" d="M 199.97,498 L 346.5,498 346.5,546.41 199.97,546.41 199.97,498 Z M 199.97,498" />
    <path id="bezier92" stroke="none" fill="none" d="M 242.53,494.25 L 346.81,494.25 346.81,529.01 242.53,529.01 242.53,494.25 Z M 242.53,494.25" />
    <rect id="rectangle9" stroke="none" fill="none" x="235.51" y="496.18" width="139.02" height="34.76" />
    <text fill="rgb(255, 255, 255)" font-family="GillSans, 'Gill Sans', 'Gill Sans MT', Calibri, sans-serif" font-size="17.38" x="235.51" y="496.18">
        <tspan x="235.51" y="512.18">DISCOUNT</tspan>
    </text>
    <path id="bezier93" stroke="none" fill="none" d="M 240.99,515.1 L 327.89,515.1 327.89,549.87 240.99,549.87 240.99,515.1 Z M 240.99,515.1" />
    <path id="bezier94" stroke="none" fill="none" d="M 257.58,584.59 L 468.65,584.59 468.65,675.02 257.58,675.02 257.58,584.59 257.58,584.59 Z M 257.58,584.59" />
    <path id="bezier95" stroke="none" fill="none" d="M 332.19,580.83 L 436.47,580.83 436.47,615.6 332.19,615.6 332.19,580.83 Z M 332.19,580.83" />
    <path id="bezier96" stroke="none" fill="none" d="M 333.45,601.69 L 437.74,601.69 437.74,636.45 333.45,636.45 333.45,601.69 Z M 333.45,601.69" />
    <rect id="rectangle10" stroke="none" fill="none" x="299.13" y="601.28" width="191.16" height="34.76" />
    <text fill="rgb(255, 255, 255)" font-family="GillSans, 'Gill Sans', 'Gill Sans MT', Calibri, sans-serif" font-size="17.38" x="299.13" y="601.28">
        <tspan x="299.13" y="617.28">INDEPENDENT</tspan>
    </text>
    <path id="bezier97" stroke="none" fill="none" d="M 341.93,622.55 L 411.45,622.55 411.45,657.31 341.93,657.31 341.93,622.55 Z M 341.93,622.55" />
    <rect id="rectangle11" stroke="none" fill="none" x="325.8" y="119.07" width="141.8" height="23.62" />
    <path id="bezier98" stroke="none" fill="none" d="M 336.48,115.31 L 527.66,115.31 527.66,150.07 336.48,150.07 336.48,115.31 Z M 336.48,115.31" />
    <rect id="rectangle12" stroke="none" fill="none" x="341.94" y="114.9" width="191.16" height="34.76" />
    <text fill="rgb(255, 255, 255)" font-family="GillSans, 'Gill Sans', 'Gill Sans MT', Calibri, sans-serif" font-size="17.38" x="341.94" y="114.9">
        <tspan x="341.94" y="130.9">CITY CENTRE</tspan>
    </text>
    <path id="bezier99" stroke="none" fill="none" d="M 443.73,104.95 L 643.61,104.95 643.61,135.84 443.73,135.84 443.73,104.95 Z M 443.73,104.95" />
    <path id="bezier100" stroke="none" fill="none" d="M 499,101.19 L 655.41,101.19 655.41,135.95 499,135.95 499,101.19 Z M 499,101.19" />
    <rect id="rectangle13" stroke="none" fill="none" x="492.76" y="100.78" width="191.16" height="34.76" />
    <text fill="rgb(255, 255, 255)" font-family="GillSans, 'Gill Sans', 'Gill Sans MT', Calibri, sans-serif" font-size="17.38" x="492.76" y="100.78">
        <tspan x="492.76" y="116.78">RETAIL PARK</tspan>
    </text>
    <path id="bezier102" stroke="none" fill="none" d="M 646.08,143.13 L 750.36,143.13 750.36,177.89 646.08,177.89 646.08,143.13 Z M 646.08,143.13" />
    <path id="bezier103" stroke="none" fill="none" d="M 626.01,163.98 L 799.81,163.98 799.81,198.75 626.01,198.75 626.01,163.98 Z M 626.01,163.98" />
    <rect id="rectangle14" stroke="none" fill="none" x="652.53" y="163.58" width="69.51" height="34.76" />
    <text fill="rgb(255, 255, 255)" font-family="GillSans, 'Gill Sans', 'Gill Sans MT', Calibri, sans-serif" font-size="17.38" x="652.53" y="163.58">
        <tspan x="652.53" y="179.58">MALL</tspan>
    </text>
    <path id="bezier104" stroke="none" fill="none" d="M 646.99,184.84 L 733.89,184.84 733.89,219.61 646.99,219.61 646.99,184.84 Z M 646.99,184.84" />
    <path id="bezier105" stroke="none" fill="none" d="M 667.94,275.51 L 842.25,275.51 842.25,340.92 667.94,340.92 667.94,275.51 Z M 667.94,275.51" />
    <path id="bezier106" stroke="none" fill="none" d="M 683.98,271.75 L 944.68,271.75 944.68,306.52 683.98,306.52 683.98,271.75 Z M 683.98,271.75" />
    <rect id="rectangle15" stroke="none" fill="none" x="707.38" y="276.03" width="139.02" height="34.76" />
    <text fill="rgb(255, 255, 255)" font-family="GillSans, 'Gill Sans', 'Gill Sans MT', Calibri, sans-serif" font-size="17.38" x="707.38" y="276.03">
        <tspan x="707.38" y="292.03">SUBURBAN</tspan>
    </text>
    <path id="bezier107" stroke="none" fill="none" d="M 673,401.61 L 861.06,401.61 861.06,419.05 673,419.05 673,401.61 Z M 673,401.61" />
    <path id="bezier108" stroke="none" fill="none" d="M 712.51,397.86 L 921.07,397.86 921.07,432.63 712.51,432.63 712.51,397.86 Z M 712.51,397.86" />
    <rect id="rectangle16" stroke="none" fill="none" x="692.51" y="375.62" width="260.67" height="34.76" />
    <text fill="rgb(255, 255, 255)" font-family="GillSans, 'Gill Sans', 'Gill Sans MT', Calibri, sans-serif" font-size="15.88" x="692.51" y="375.62">
        <tspan x="692.51" y="390.62">STATUS CONSCIOUS</tspan>
    </text>
    <path id="bezier109" stroke="none" fill="none" d="M 572.69,528.76 L 856.16,528.76 856.16,597.81 572.69,597.81 572.69,528.76 572.69,528.76 Z M 572.69,528.76" />
    <path id="bezier110" stroke="none" fill="none" d="M 664.63,525 L 855.82,525 855.82,559.76 664.63,559.76 664.63,525 Z M 664.63,525" />
    <rect id="rectangle17" stroke="none" fill="none" x="664.63" y="524.59" width="191.16" height="34.76" />
    <text fill="rgb(255, 255, 255)" font-family="GillSans, 'Gill Sans', 'Gill Sans MT', Calibri, sans-serif" font-size="17.38" x="664.63" y="524.59">
        <tspan x="664.63" y="540.59">PRICE SAVVY</tspan>
    </text>
    <path id="bezier112" stroke="none" fill="none" d="M 602.43,607.77 L 706.71,607.77 706.71,642.53 602.43,642.53 602.43,607.77 Z M 602.43,607.77" />
    <path id="bezier113" stroke="none" fill="none" d="M 581.58,628.63 L 772.76,628.63 772.76,663.39 581.58,663.39 581.58,628.63 Z M 581.58,628.63" />
    <rect id="rectangle18" stroke="none" fill="none" x="584.58" y="618.22" width="173.78" height="34.76" />
    <text fill="rgb(255, 255, 255)" font-family="GillSans, 'Gill Sans', 'Gill Sans MT', Calibri, sans-serif" font-size="17.38" x="584.58" y="618.22">
        <tspan x="584.58" y="634.22">TECH LOVER</tspan>
    </text>
    <path id="bezier114" stroke="none" fill="none" d="M 436.35,654.42 L 554.64,654.42 554.64,741.63 436.35,741.63 436.35,654.42 Z M 436.35,654.42" />
    <path id="bezier115" stroke="none" fill="none" d="M 478.69,650.66 L 530.83,650.66 530.83,685.42 478.69,685.42 478.69,650.66 Z M 478.69,650.66" />
    <rect id="rectangle19" stroke="none" fill="none" x="465.43" y="654.93" width="121.65" height="34.76" />
    <text fill="rgb(255, 255, 255)" font-family="GillSans, 'Gill Sans', 'Gill Sans MT', Calibri, sans-serif" font-size="17.38" x="465.43" y="654.93">
        <tspan x="465.43" y="670.93">SHOPPER</tspan>
    </text>
    <path id="bezier116" stroke="rgb(255, 255, 255)" stroke-width="13" stroke-miterlimit="10" fill="none" d="M 633.62,263.93 C 698.13,328.44 698.13,433.04 633.62,497.56 569.1,562.07 464.5,562.07 399.99,497.56 335.48,433.04 335.48,328.44 399.99,263.93 464.5,199.41 569.1,199.41 633.62,263.93 Z M 633.62,263.93" />
    <rect id="rectangle20" stroke="none" fill="none" x="692.51" y="401.66" width="191.16" height="34.76" />
    <text fill="rgb(255, 255, 255)" font-family="GillSans, 'Gill Sans', 'Gill Sans MT', Calibri, sans-serif" font-size="15.88" x="692.51" y="401.66">
        <tspan x="692.51" y="416.66">FASHIONISTA</tspan>
    </text>
    <rect id="rectangle21" stroke="none" fill="none" x="466.31" y="630.78" width="86.89" height="34.76" />
    <text fill="rgb(255, 255, 255)" font-family="GillSans, 'Gill Sans', 'Gill Sans MT', Calibri, sans-serif" font-size="17.38" x="466.31" y="630.78">
        <tspan x="466.31" y="646.78">BASED</tspan>
    </text>
    <rect id="rectangle22" stroke="none" fill="none" x="466.77" y="606.38" width="86.89" height="34.76" />
    <text fill="rgb(255, 255, 255)" font-family="GillSans, 'Gill Sans', 'Gill Sans MT', Calibri, sans-serif" font-size="17.38" x="466.77" y="606.38">
        <tspan x="466.77" y="622.38">NEEDS</tspan>
    </text>
</svg>
